# xmcd
#
# Track frame offsets:
#	150
#	15731
#	30676
#	45406
#	60019
#	75343
#	89744
#	102689
#	115726
#	130362
#	145559
#	157145
#	173410
#	188969
#	201962
#	214953
#	232465
#	245462
#	259778
#	276557
#	292274
#
# Disc length: 4085 seconds
#
# Revision: 1
# Processed by: cddbd v1.5.2PL0 Copyright (c) Steve Scherf et al.
# Submitted via: dBpowerAMP V4.0
#
DISCID=3c0ff315
DTITLE=Various Artist - Hott Country Volume 251 Can
DYEAR=2017
DGENRE=Country
TTITLE0=Luke Bryan - Fast
TTITLE1=Kenny Chesney - Bar At The End Of The World
TTITLE2=Washboard Union, The - Head Over Heels [Turbo Diesel Radio Mix]
TTITLE3=Leaving Thomas - Waiting Kind Of Girl
TTITLE4=Jason Aldean - Any Ol' Barstool
TTITLE5=Brett Kissel - She's Desire
TTITLE6=Twoshine County - Track 9
TTITLE7=Seth Ennis - Woke Up In Nashville
TTITLE8=Dan Davidson - Barn Burner
TTITLE9=River Town Saints - Bonfire
TTITLE10=Candi Carpenter - Burn The Bed
TTITLE11=Brothers Osborne - It Ain't My Fault
TTITLE12=Casey Donahew - Kiss Me
TTITLE13=Beamer Wigley - Boombox
TTITLE14=Jackie Lee - Getting Over You
TTITLE15=Colt Ford - 4 Lane Gone
TTITLE16=Mo Pitney - Everywhere
TTITLE17=Michael Tyler - They Can't See
TTITLE18=Aaron Watson - Outta Style
TTITLE19=Jesse Mast - Runnin', Young And Lovin'
TTITLE20=Hunter Brothers - Long Way To Love You
EXTD=
EXTT0=
EXTT1=
EXTT2=
EXTT3=
EXTT4=
EXTT5=
EXTT6=
EXTT7=
EXTT8=
EXTT9=
EXTT10=
EXTT11=
EXTT12=
EXTT13=
EXTT14=
EXTT15=
EXTT16=
EXTT17=
EXTT18=
EXTT19=
EXTT20=
PLAYORDER=
